<?xml version="1.0" encoding="utf-8"?>
<!-- Generator: Adobe Illustrator 21.0.0, SVG Export Plug-In . SVG Version: 6.00 Build 0)  -->
<svg version="1.1" id="圖層_1" xmlns="http://www.w3.org/2000/svg" xmlns:xlink="http://www.w3.org/1999/xlink" x="0px" y="0px"
	 viewBox="0 0 24.4 26.1" style="enable-background:new 0 0 24.4 26.1;" xml:space="preserve">
<style type="text/css">
	.st0{fill-rule:evenodd;clip-rule:evenodd;}
</style>
<path class="st0" d="M12.1,25.8c0.3,0.3,0.8,0.3,1.1,0c0.3-0.3,0.3-0.8,0-1.1L2.6,13.8h21c0.4,0,0.8-0.4,0.8-0.8
	c0-0.4-0.3-0.8-0.8-0.8h-21L13.2,1.4c0.3-0.3,0.3-0.8,0-1.1c-0.3-0.3-0.8-0.3-1.1,0L0.2,12.5l0,0l0,0l0,0l0,0l0,0l0,0l0,0l0,0v0h0v0
	l0,0v0l0,0l0,0l0,0v0v0l0,0l0,0l0,0v0v0l0,0l0,0v0l0,0v0v0h0v0v0l0,0.1v0v0v0v0L0,13v0v0v0v0v0v0v0v0l0,0.1v0v0v0v0l0,0.1v0v0h0v0v0
	l0,0v0l0,0v0l0,0v0v0l0,0l0,0l0,0v0v0l0,0l0,0l0,0v0l0,0l0,0l0,0l0,0l0,0l0,0l0,0l0,0l0,0l0,0L12.1,25.8z"/>
</svg>
