<?xml version="1.0" encoding="utf-8"?>
<!-- Generator: Adobe Illustrator 21.0.0, SVG Export Plug-In . SVG Version: 6.00 Build 0)  -->
<svg version="1.1" id="圖層_1" xmlns="http://www.w3.org/2000/svg" xmlns:xlink="http://www.w3.org/1999/xlink" x="0px" y="0px"
	 viewBox="0 0 261 59" style="enable-background:new 0 0 261 59;" xml:space="preserve">
<style type="text/css">
	.st0{fill-rule:evenodd;clip-rule:evenodd;fill:#FF290B;}
	.st1{fill:#FFFFFF;}
	.st2{fill-rule:evenodd;clip-rule:evenodd;fill:#FFFFFF;}
</style>
<path class="st0" d="M94.5,53.6v-2.6c9.5-1.4,17-8.9,18.4-18.4h2.6C114.1,43.6,105.4,52.2,94.5,53.6z M91.3,33.1
	c-2,0-3.6-1.6-3.6-3.6s1.6-3.6,3.6-3.6c2,0,3.6,1.6,3.6,3.6S93.3,33.1,91.3,33.1z M88.1,53.6c-10.9-1.4-19.6-10.1-21-21h2.6
	c1.4,9.5,8.9,17,18.4,18.4V53.6z M69.7,26.3h-2.6c1.4-10.9,10.1-19.5,21-20.9v2.6C78.6,9.3,71.1,16.8,69.7,26.3z M94.5,5.4
	c10.9,1.4,19.6,10.1,21,20.9h-2.6c-1.4-9.5-8.9-17-18.4-18.4V5.4z M96.9,30.8c0.1-0.4,0.2-0.8,0.2-1.3s-0.1-0.9-0.2-1.3h24
	c-0.6-15.3-13-27.6-28.3-28.2v23.9c-0.4-0.1-0.8-0.1-1.3-0.1c-0.4,0-0.9,0.1-1.3,0.1V0C74.7,0.6,62.4,12.9,61.7,28.2h24
	c-0.1,0.4-0.2,0.8-0.2,1.3s0.1,0.9,0.2,1.3h-24C62.4,46.1,74.7,58.3,90,59V35.1c0.4,0.1,0.8,0.2,1.3,0.2c0.4,0,0.9-0.1,1.3-0.2V59
	c15.3-0.7,27.7-12.9,28.3-28.2H96.9z"/>
<polygon class="st1" points="234.1,59 247.5,59 204.1,0 198.6,0 190.7,0 187.8,0 187.8,48.3 187.8,58.3 187.8,59 188.4,59 198.6,59 
	224.5,59 216.6,48.3 198.6,48.3 198.6,10.7 "/>
<path class="st2" d="M40.9,24.1H10.8V10.7h30.1c3.7,0,6.7,3,6.7,6.7C47.6,21.1,44.6,24.1,40.9,24.1z M40.9,0H10.8H0v0.7v10.1v13.4
	v10.7v23.5V59h10.8v-0.7V34.9h30.1c9.7,0,17.5-7.8,17.5-17.4C58.4,7.8,50.6,0,40.9,0z"/>
<path class="st1" d="M124.2,17.4c0,9.6,7.8,17.4,17.5,17.4H164h1.1c3.7,0,6.7,3,6.7,6.7c0,3.7-3,6.7-6.7,6.7h-40.9V59h40.9
	c9.6,0,17.5-7.8,17.5-17.4c0-9.6-7.9-17.4-17.5-17.4h-22.3h-1.1c-3.7,0-6.7-3-6.7-6.7c0-3.7,3-6.7,6.7-6.7h40.9V0h-40.9
	C132,0,124.2,7.8,124.2,17.4z"/>
<path class="st2" d="M258.6,57.2c-0.3-0.5-0.3-1.2-0.3-1.9c-0.1-0.7-0.2-1.3-1.1-1.5v0c0.9-0.3,1.3-1,1.3-1.8c0-1.2-0.9-1.9-2.2-1.9
	h-3.4c0.8-0.6,1.8-1,2.8-1c2.5,0,4.6,2.1,4.6,4.6C260.2,55,259.6,56.3,258.6,57.2z M253.8,53.4v-2.5h2.4c0.9,0,1.3,0.5,1.3,1.2
	c0,1.1-0.8,1.3-1.7,1.3H253.8z M252.9,57.3h0.9v-3.1h2.4c0.9,0,1.1,0.6,1.2,1.3c0.1,0.7,0,1.5,0.3,1.8h0.8c-0.8,0.6-1.7,0.9-2.8,0.9
	C254.6,58.2,253.6,57.9,252.9,57.3z M251,53.6c0-1.5,0.7-2.8,1.8-3.6v7.2C251.7,56.4,251,55.1,251,53.6z M255.6,48.3
	c-3,0-5.4,2.4-5.4,5.4c0,3,2.4,5.4,5.4,5.4c3,0,5.4-2.4,5.4-5.4C261,50.7,258.6,48.3,255.6,48.3z"/>
</svg>
