<?xml version="1.0" encoding="utf-8"?>
<!-- Generator: Adobe Illustrator 21.0.0, SVG Export Plug-In . SVG Version: 6.00 Build 0)  -->
<svg version="1.1" id="圖層_1" xmlns="http://www.w3.org/2000/svg" xmlns:xlink="http://www.w3.org/1999/xlink" x="0px" y="0px"
	 viewBox="0 0 600 600" style="enable-background:new 0 0 600 600;" xml:space="preserve">
<style type="text/css">
	.st0{opacity:0.6;fill-rule:evenodd;clip-rule:evenodd;fill:#DEDEE2;}
	.st1{fill:none;stroke:#CCCCCC;stroke-linecap:round;stroke-linejoin:round;stroke-dasharray:4.9973,4.9973;}
	.st2{fill-rule:evenodd;clip-rule:evenodd;fill:#FF290B;}
	.st3{fill-rule:evenodd;clip-rule:evenodd;fill:#262C78;}
	.st4{opacity:0.5;fill-rule:evenodd;clip-rule:evenodd;fill:#DDDDDD;}
	.st5{fill-rule:evenodd;clip-rule:evenodd;fill:#FFFFFF;}
</style>
<g>
	<circle class="st0" cx="300" cy="300" r="219.7"/>
	<g>
		<circle class="st1" cx="300" cy="300" r="251.3"/>
	</g>
	<path class="st2" d="M42.1,300c0,142.4,115.5,257.9,257.9,257.9V546C164.1,546,54,435.9,54,300H42.1z"/>
	<path class="st3" d="M523.7,300c0-123.5-100.1-223.7-223.7-223.7v6.6c119.9,0,217.1,97.2,217.1,217.1H523.7z"/>
	<path class="st4" d="M0,300c0,165.7,134.3,300,300,300c58.6,0,113.3-16.8,159.5-45.8l-6.1-6.4c-44.5,27.6-97.1,43.6-153.4,43.6
		C139.1,591.3,8.7,460.9,8.7,300c0-60.7,18.6-117.1,50.3-163.8l-6.1-6.4C19.5,178.2,0,236.8,0,300z M147.3,51.9
		C191.7,24.5,244,8.7,300,8.7c160.9,0,291.3,130.4,291.3,291.3c0,60.4-18.4,116.6-49.9,163.1l6.1,6.5C580.6,421.4,600,363,600,300
		C600,134.3,465.7,0,300,0c-58.3,0-112.7,16.6-158.8,45.4L147.3,51.9z"/>
	<ellipse class="st5" cx="300.9" cy="300.5" rx="178.2" ry="178.2"/>
</g>
</svg>
