<?xml version="1.0" encoding="utf-8"?>
<!-- Generator: Adobe Illustrator 21.0.0, SVG Export Plug-In . SVG Version: 6.00 Build 0)  -->
<svg version="1.1" id="圖層_1" xmlns="http://www.w3.org/2000/svg" xmlns:xlink="http://www.w3.org/1999/xlink" x="0px" y="0px"
	 viewBox="0 0 760.5 769.5" style="enable-background:new 0 0 760.5 769.5;" xml:space="preserve">
<style type="text/css">
	
		.st0{fill-rule:evenodd;clip-rule:evenodd;fill:#FFFFFF;stroke:#FFFFFF;stroke-linecap:round;stroke-linejoin:round;stroke-miterlimit:10;}
	.st1{fill-rule:evenodd;clip-rule:evenodd;fill:url(#SVGID_1_);}
	.st2{fill-rule:evenodd;clip-rule:evenodd;fill:#FF290B;}
	.st3{fill-rule:evenodd;clip-rule:evenodd;fill:#FFFFFF;}
	.st4{fill:none;stroke:#555555;stroke-linecap:round;stroke-linejoin:round;stroke-dasharray:4.9996,4.9996;}
</style>
<path class="st0" d="M5.5,384.5c0,207.1,167.9,375,375,375s375-167.9,375-375s-167.9-375-375-375S5.5,177.4,5.5,384.5z M10.5,384.5
	c0-204.4,165.7-370,370-370s370,165.7,370,370s-165.7,370-370,370S10.5,588.9,10.5,384.5z"/>
<linearGradient id="SVGID_1_" gradientUnits="userSpaceOnUse" x1="380.5" y1="195" x2="760.5" y2="195">
	<stop  offset="0" style="stop-color:#FF290B"/>
	<stop  offset="1" style="stop-color:#262C78"/>
</linearGradient>
<path class="st1" d="M760.5,385.5v-1c0-209.9-170.1-380-380-380v12c203.2,0,368,164.8,368,368v1H760.5z"/>
<circle class="st2" cx="380.5" cy="11" r="11"/>
<circle class="st3" cx="380.5" cy="11" r="5"/>
<g>
	<circle class="st4" cx="380.5" cy="384.5" r="331"/>
</g>
</svg>
